<svg xmlns="http://www.w3.org/2000/svg" viewBox="0 0 800 1000" width="800" height="1000">
  <defs>
    <radialGradient id="g" cx="50%" cy="46%" r="62%">
      <stop offset="0%" stop-color="#241d14"/>
      <stop offset="100%" stop-color="#14110d"/>
    </radialGradient>
  </defs>
  <rect width="800" height="1000" fill="url(#g)"/>
  <rect x="34" y="34" width="732" height="932" fill="none" stroke="#c8a75d" stroke-width="1" opacity="0.25"/>
  <g>
    <circle cx="400" cy="520" r="150" fill="none" stroke="#c8a75d" stroke-width="3"/>
    <circle cx="400" cy="520" r="120" fill="none" stroke="#c8a75d" stroke-width="1.6" opacity="0.6"/>
    <circle cx="400.0" cy="385.0" r="3" fill="#c8a75d" opacity="0.75"/><circle cx="421.1" cy="386.7" r="3" fill="#c8a75d" opacity="0.75"/><circle cx="441.7" cy="391.6" r="3" fill="#c8a75d" opacity="0.75"/><circle cx="461.3" cy="399.7" r="3" fill="#c8a75d" opacity="0.75"/><circle cx="479.4" cy="410.8" r="3" fill="#c8a75d" opacity="0.75"/><circle cx="495.5" cy="424.5" r="3" fill="#c8a75d" opacity="0.75"/><circle cx="509.2" cy="440.6" r="3" fill="#c8a75d" opacity="0.75"/><circle cx="520.3" cy="458.7" r="3" fill="#c8a75d" opacity="0.75"/><circle cx="528.4" cy="478.3" r="3" fill="#c8a75d" opacity="0.75"/><circle cx="533.3" cy="498.9" r="3" fill="#c8a75d" opacity="0.75"/><circle cx="535.0" cy="520.0" r="3" fill="#c8a75d" opacity="0.75"/><circle cx="533.3" cy="541.1" r="3" fill="#c8a75d" opacity="0.75"/><circle cx="528.4" cy="561.7" r="3" fill="#c8a75d" opacity="0.75"/><circle cx="520.3" cy="581.3" r="3" fill="#c8a75d" opacity="0.75"/><circle cx="509.2" cy="599.4" r="3" fill="#c8a75d" opacity="0.75"/><circle cx="495.5" cy="615.5" r="3" fill="#c8a75d" opacity="0.75"/><circle cx="479.4" cy="629.2" r="3" fill="#c8a75d" opacity="0.75"/><circle cx="461.3" cy="640.3" r="3" fill="#c8a75d" opacity="0.75"/><circle cx="441.7" cy="648.4" r="3" fill="#c8a75d" opacity="0.75"/><circle cx="421.1" cy="653.3" r="3" fill="#c8a75d" opacity="0.75"/><circle cx="400.0" cy="655.0" r="3" fill="#c8a75d" opacity="0.75"/><circle cx="378.9" cy="653.3" r="3" fill="#c8a75d" opacity="0.75"/><circle cx="358.3" cy="648.4" r="3" fill="#c8a75d" opacity="0.75"/><circle cx="338.7" cy="640.3" r="3" fill="#c8a75d" opacity="0.75"/><circle cx="320.6" cy="629.2" r="3" fill="#c8a75d" opacity="0.75"/><circle cx="304.5" cy="615.5" r="3" fill="#c8a75d" opacity="0.75"/><circle cx="290.8" cy="599.4" r="3" fill="#c8a75d" opacity="0.75"/><circle cx="279.7" cy="581.3" r="3" fill="#c8a75d" opacity="0.75"/><circle cx="271.6" cy="561.7" r="3" fill="#c8a75d" opacity="0.75"/><circle cx="266.7" cy="541.1" r="3" fill="#c8a75d" opacity="0.75"/><circle cx="265.0" cy="520.0" r="3" fill="#c8a75d" opacity="0.75"/><circle cx="266.7" cy="498.9" r="3" fill="#c8a75d" opacity="0.75"/><circle cx="271.6" cy="478.3" r="3" fill="#c8a75d" opacity="0.75"/><circle cx="279.7" cy="458.7" r="3" fill="#c8a75d" opacity="0.75"/><circle cx="290.8" cy="440.6" r="3" fill="#c8a75d" opacity="0.75"/><circle cx="304.5" cy="424.5" r="3" fill="#c8a75d" opacity="0.75"/><circle cx="320.6" cy="410.8" r="3" fill="#c8a75d" opacity="0.75"/><circle cx="338.7" cy="399.7" r="3" fill="#c8a75d" opacity="0.75"/><circle cx="358.3" cy="391.6" r="3" fill="#c8a75d" opacity="0.75"/><circle cx="378.9" cy="386.7" r="3" fill="#c8a75d" opacity="0.75"/>
    <circle cx="400.0" cy="424.0" r="2.6" fill="#c8a75d" opacity="0.75"/><circle cx="421.4" cy="426.4" r="2.6" fill="#c8a75d" opacity="0.75"/><circle cx="441.7" cy="433.5" r="2.6" fill="#c8a75d" opacity="0.75"/><circle cx="459.9" cy="444.9" r="2.6" fill="#c8a75d" opacity="0.75"/><circle cx="475.1" cy="460.1" r="2.6" fill="#c8a75d" opacity="0.75"/><circle cx="486.5" cy="478.3" r="2.6" fill="#c8a75d" opacity="0.75"/><circle cx="493.6" cy="498.6" r="2.6" fill="#c8a75d" opacity="0.75"/><circle cx="496.0" cy="520.0" r="2.6" fill="#c8a75d" opacity="0.75"/><circle cx="493.6" cy="541.4" r="2.6" fill="#c8a75d" opacity="0.75"/><circle cx="486.5" cy="561.7" r="2.6" fill="#c8a75d" opacity="0.75"/><circle cx="475.1" cy="579.9" r="2.6" fill="#c8a75d" opacity="0.75"/><circle cx="459.9" cy="595.1" r="2.6" fill="#c8a75d" opacity="0.75"/><circle cx="441.7" cy="606.5" r="2.6" fill="#c8a75d" opacity="0.75"/><circle cx="421.4" cy="613.6" r="2.6" fill="#c8a75d" opacity="0.75"/><circle cx="400.0" cy="616.0" r="2.6" fill="#c8a75d" opacity="0.75"/><circle cx="378.6" cy="613.6" r="2.6" fill="#c8a75d" opacity="0.75"/><circle cx="358.3" cy="606.5" r="2.6" fill="#c8a75d" opacity="0.75"/><circle cx="340.1" cy="595.1" r="2.6" fill="#c8a75d" opacity="0.75"/><circle cx="324.9" cy="579.9" r="2.6" fill="#c8a75d" opacity="0.75"/><circle cx="313.5" cy="561.7" r="2.6" fill="#c8a75d" opacity="0.75"/><circle cx="306.4" cy="541.4" r="2.6" fill="#c8a75d" opacity="0.75"/><circle cx="304.0" cy="520.0" r="2.6" fill="#c8a75d" opacity="0.75"/><circle cx="306.4" cy="498.6" r="2.6" fill="#c8a75d" opacity="0.75"/><circle cx="313.5" cy="478.3" r="2.6" fill="#c8a75d" opacity="0.75"/><circle cx="324.9" cy="460.1" r="2.6" fill="#c8a75d" opacity="0.75"/><circle cx="340.1" cy="444.9" r="2.6" fill="#c8a75d" opacity="0.75"/><circle cx="358.3" cy="433.5" r="2.6" fill="#c8a75d" opacity="0.75"/><circle cx="378.6" cy="426.4" r="2.6" fill="#c8a75d" opacity="0.75"/>
    <circle cx="400" cy="520" r="52" fill="none" stroke="#c8a75d" stroke-width="2.2"/>
    <path d="M400 490 q26 30 0 60 q-26 -30 0 -60z" fill="none" stroke="#c8a75d" stroke-width="2"/>
    <path d="M356 352 q44 -46 88 0 q-18 20 -44 20 q-26 0 -44 -20z" fill="none" stroke="#c8a75d" stroke-width="3"/>
    <path d="M370 348 h60" stroke="#c8a75d" stroke-width="2.4"/></g>
</svg>