<svg xmlns="http://www.w3.org/2000/svg" viewBox="0 0 800 1000" width="800" height="1000">
  <defs>
    <radialGradient id="g" cx="50%" cy="46%" r="62%">
      <stop offset="0%" stop-color="#241d14"/>
      <stop offset="100%" stop-color="#14110d"/>
    </radialGradient>
  </defs>
  <rect width="800" height="1000" fill="url(#g)"/>
  <rect x="34" y="34" width="732" height="932" fill="none" stroke="#c8a75d" stroke-width="1" opacity="0.25"/>
  <g>
    <path d="M190 540 q210 -250 420 0" fill="none" stroke="#c8a75d" stroke-width="9" stroke-linecap="round"/>
    <path d="M190 540 q210 -206 420 0" fill="none" stroke="#c8a75d" stroke-width="1.6" opacity="0.45"/>
    <path d="M610 540 q54 40 62 96 q-40 26 -78 -2" fill="none" stroke="#c8a75d" stroke-width="5" stroke-linecap="round"/>
    <path d="M190 540 q-44 44 -20 88 l356 58" fill="none" stroke="#c8a75d" stroke-width="3" stroke-linecap="round"/>
    <ellipse cx="180" cy="548" rx="22" ry="15" transform="rotate(-24 180 548)" fill="none" stroke="#c8a75d" stroke-width="2.6"/>
    <circle cx="190.0" cy="540.0" r="3.6" fill="#c8a75d" opacity="0.85"/><circle cx="213.3" cy="507.4" r="3.6" fill="#c8a75d" opacity="0.85"/><circle cx="236.7" cy="475.7" r="3.6" fill="#c8a75d" opacity="0.85"/><circle cx="260.0" cy="446.0" r="3.6" fill="#c8a75d" opacity="0.85"/><circle cx="283.3" cy="419.2" r="3.6" fill="#c8a75d" opacity="0.85"/><circle cx="306.7" cy="396.0" r="3.6" fill="#c8a75d" opacity="0.85"/><circle cx="330.0" cy="377.2" r="3.6" fill="#c8a75d" opacity="0.85"/><circle cx="353.3" cy="363.3" r="3.6" fill="#c8a75d" opacity="0.85"/><circle cx="376.7" cy="354.9" r="3.6" fill="#c8a75d" opacity="0.85"/><circle cx="400.0" cy="352.0" r="3.6" fill="#c8a75d" opacity="0.85"/><circle cx="423.3" cy="354.9" r="3.6" fill="#c8a75d" opacity="0.85"/><circle cx="446.7" cy="363.3" r="3.6" fill="#c8a75d" opacity="0.85"/><circle cx="470.0" cy="377.2" r="3.6" fill="#c8a75d" opacity="0.85"/><circle cx="493.3" cy="396.0" r="3.6" fill="#c8a75d" opacity="0.85"/><circle cx="516.7" cy="419.2" r="3.6" fill="#c8a75d" opacity="0.85"/><circle cx="540.0" cy="446.0" r="3.6" fill="#c8a75d" opacity="0.85"/><circle cx="563.3" cy="475.7" r="3.6" fill="#c8a75d" opacity="0.85"/><circle cx="586.7" cy="507.4" r="3.6" fill="#c8a75d" opacity="0.85"/><circle cx="610.0" cy="540.0" r="3.6" fill="#c8a75d" opacity="0.85"/>
    <circle cx="260.0" cy="472.0" r="2.6" fill="#c8a75d" opacity="0.5"/><circle cx="283.3" cy="445.2" r="2.6" fill="#c8a75d" opacity="0.5"/><circle cx="306.7" cy="422.0" r="2.6" fill="#c8a75d" opacity="0.5"/><circle cx="330.0" cy="403.2" r="2.6" fill="#c8a75d" opacity="0.5"/><circle cx="353.3" cy="389.3" r="2.6" fill="#c8a75d" opacity="0.5"/><circle cx="376.7" cy="380.9" r="2.6" fill="#c8a75d" opacity="0.5"/><circle cx="400.0" cy="378.0" r="2.6" fill="#c8a75d" opacity="0.5"/><circle cx="423.3" cy="380.9" r="2.6" fill="#c8a75d" opacity="0.5"/><circle cx="446.7" cy="389.3" r="2.6" fill="#c8a75d" opacity="0.5"/><circle cx="470.0" cy="403.2" r="2.6" fill="#c8a75d" opacity="0.5"/><circle cx="493.3" cy="422.0" r="2.6" fill="#c8a75d" opacity="0.5"/><circle cx="516.7" cy="445.2" r="2.6" fill="#c8a75d" opacity="0.5"/><circle cx="540.0" cy="472.0" r="2.6" fill="#c8a75d" opacity="0.5"/></g>
</svg>